<?xml version="1.0" encoding="UTF-8" standalone="no"?><svg xmlns="http://www.w3.org/2000/svg" xmlns:xlink="http://www.w3.org/1999/xlink" contentScriptType="application/ecmascript" contentStyleType="text/css" height="2811px" preserveAspectRatio="none" style="width:997px;height:2811px;" version="1.1" viewBox="0 0 997 2811" width="997px" zoomAndPan="magnify"><defs/><g><text fill="#000000" font-family="DejaVu Sans" font-size="18" lengthAdjust="spacingAndGlyphs" textLength="668" x="163.5" y="26.708">Οικονομικό Μοντέλο Συνεργασίας Πολιτών - Δικηγόρων - Τεκμηρίωσης</text><ellipse cx="566.875" cy="40.9531" fill="#000000" rx="10" ry="10" style="stroke: none; stroke-width: 1.0;"/><rect fill="#F8F8F8" height="33.9688" rx="12.5" ry="12.5" style="stroke: #333333; stroke-width: 1.5;" width="281" x="426.375" y="70.9531"/><text fill="#111111" font-family="DejaVu Sans" font-size="12" lengthAdjust="spacingAndGlyphs" textLength="261" x="436.375" y="92.0918">Πολίτης με οικονομικό / νομικό πρόβλημα</text><path d="M683.375,121.1914 L683.375,144.8906 L663.375,148.8906 L683.375,152.8906 L683.375,176.5898 A0,0 0 0 0 683.375,176.5898 L884.375,176.5898 A0,0 0 0 0 884.375,176.5898 L884.375,131.1914 L874.375,121.1914 L683.375,121.1914 A0,0 0 0 0 683.375,121.1914 " fill="#FFF8DC" style="stroke: #999999; stroke-width: 1.0;"/><path d="M874.375,121.1914 L874.375,131.1914 L884.375,131.1914 L874.375,121.1914 " fill="#FFF8DC" style="stroke: #999999; stroke-width: 1.0;"/><text fill="#000000" font-family="DejaVu Sans" font-size="13" lengthAdjust="spacingAndGlyphs" textLength="49" x="689.375" y="138.2583">Στόχος:</text><text fill="#000000" font-family="DejaVu Sans" font-size="13" lengthAdjust="spacingAndGlyphs" textLength="180" x="689.375" y="153.3911">να μη αποκλείεται ο πολίτης</text><text fill="#000000" font-family="DejaVu Sans" font-size="13" lengthAdjust="spacingAndGlyphs" textLength="166" x="689.375" y="168.5239">λόγω έλλειψης χρημάτων.</text><rect fill="#F8F8F8" height="47.9375" rx="12.5" ry="12.5" style="stroke: #333333; stroke-width: 1.5;" width="193" x="470.375" y="124.9219"/><text fill="#111111" font-family="DejaVu Sans" font-size="12" lengthAdjust="spacingAndGlyphs" textLength="150" x="480.375" y="146.0605">Χαμηλό κόστος εισόδου</text><text fill="#111111" font-family="DejaVu Sans" font-size="12" lengthAdjust="spacingAndGlyphs" textLength="173" x="480.375" y="160.0293">Άνοιγμα φακέλου 30€ - 50€</text><rect fill="#F8F8F8" height="33.9688" rx="12.5" ry="12.5" style="stroke: #333333; stroke-width: 1.5;" width="207" x="463.375" y="196.5898"/><text fill="#111111" font-family="DejaVu Sans" font-size="12" lengthAdjust="spacingAndGlyphs" textLength="187" x="473.375" y="217.7285">Βασική καταγραφή στοιχείων</text><rect fill="#F8F8F8" height="33.9688" rx="12.5" ry="12.5" style="stroke: #333333; stroke-width: 1.5;" width="349" x="392.375" y="250.5586"/><text fill="#111111" font-family="DejaVu Sans" font-size="12" lengthAdjust="spacingAndGlyphs" textLength="329" x="402.375" y="271.6973">Πρώτη εκτίμηση πραγματικής αδυναμίας πληρωμής</text><rect fill="#F8F8F8" height="33.9688" rx="12.5" ry="12.5" style="stroke: #333333; stroke-width: 1.5;" width="159" x="487.375" y="304.5273"/><text fill="#111111" font-family="DejaVu Sans" font-size="12" lengthAdjust="spacingAndGlyphs" textLength="139" x="497.375" y="325.666">Ταξινόμηση υπόθεσης</text><polygon fill="#FEFECE" points="492.875,358.4961,640.875,358.4961,652.875,370.4961,640.875,382.4961,492.875,382.4961,480.875,370.4961,492.875,358.4961" style="stroke: #A80036; stroke-width: 1.5;"/><text fill="#000000" font-family="DejaVu Sans" font-size="11" lengthAdjust="spacingAndGlyphs" textLength="148" x="492.875" y="374.3042">Η υπόθεση έχει προοπτική;</text><text fill="#000000" font-family="DejaVu Sans" font-size="11" lengthAdjust="spacingAndGlyphs" textLength="19" x="461.875" y="367.9019">Ναι</text><text fill="#000000" font-family="DejaVu Sans" font-size="11" lengthAdjust="spacingAndGlyphs" textLength="18" x="652.875" y="367.9019">Όχι</text><rect fill="#F8F8F8" height="47.9375" rx="12.5" ry="12.5" style="stroke: #333333; stroke-width: 1.5;" width="271" x="178.75" y="392.4961"/><text fill="#111111" font-family="DejaVu Sans" font-size="12" lengthAdjust="spacingAndGlyphs" textLength="251" x="188.75" y="413.6348">Βασικός Φάκελος Αδυναμίας Πληρωμής</text><text fill="#111111" font-family="DejaVu Sans" font-size="12" lengthAdjust="spacingAndGlyphs" textLength="76" x="188.75" y="427.6035">150€ - 250€</text><rect fill="#F8F8F8" height="33.9688" rx="12.5" ry="12.5" style="stroke: #333333; stroke-width: 1.5;" width="293" x="167.75" y="474.4023"/><text fill="#111111" font-family="DejaVu Sans" font-size="12" lengthAdjust="spacingAndGlyphs" textLength="273" x="177.75" y="495.541">Υπολογισμός ελάχιστου κόστους διαβίωσης</text><rect fill="#F8F8F8" height="33.9688" rx="12.5" ry="12.5" style="stroke: #333333; stroke-width: 1.5;" width="226" x="201.25" y="528.3711"/><text fill="#111111" font-family="DejaVu Sans" font-size="12" lengthAdjust="spacingAndGlyphs" textLength="206" x="211.25" y="549.5098">Πίνακες εισοδήματος - δαπανών</text><rect fill="#F8F8F8" height="33.9688" rx="12.5" ry="12.5" style="stroke: #333333; stroke-width: 1.5;" width="262" x="183.25" y="582.3398"/><text fill="#111111" font-family="DejaVu Sans" font-size="12" lengthAdjust="spacingAndGlyphs" textLength="242" x="193.25" y="603.4785">Συγκέντρωση αποδεικτικών στοιχείων</text><rect fill="#F8F8F8" height="33.9688" rx="12.5" ry="12.5" style="stroke: #333333; stroke-width: 1.5;" width="196" x="216.25" y="636.3086"/><text fill="#111111" font-family="DejaVu Sans" font-size="12" lengthAdjust="spacingAndGlyphs" textLength="176" x="226.25" y="657.4473">Σύντομη οικονομική έκθεση</text><polygon fill="#FEFECE" points="226.75,690.2773,401.75,690.2773,413.75,702.2773,401.75,714.2773,226.75,714.2773,214.75,702.2773,226.75,690.2773" style="stroke: #A80036; stroke-width: 1.5;"/><text fill="#000000" font-family="DejaVu Sans" font-size="11" lengthAdjust="spacingAndGlyphs" textLength="175" x="226.75" y="706.0854">Απαιτείται πλήρης τεκμηρίωση;</text><text fill="#000000" font-family="DejaVu Sans" font-size="11" lengthAdjust="spacingAndGlyphs" textLength="19" x="195.75" y="699.6831">Ναι</text><text fill="#000000" font-family="DejaVu Sans" font-size="11" lengthAdjust="spacingAndGlyphs" textLength="18" x="413.75" y="699.6831">Όχι</text><rect fill="#F8F8F8" height="47.9375" rx="12.5" ry="12.5" style="stroke: #333333; stroke-width: 1.5;" width="212" x="71" y="724.2773"/><text fill="#111111" font-family="DejaVu Sans" font-size="12" lengthAdjust="spacingAndGlyphs" textLength="192" x="81" y="745.416">Πλήρης Φάκελος Τεκμηρίωσης</text><text fill="#111111" font-family="DejaVu Sans" font-size="12" lengthAdjust="spacingAndGlyphs" textLength="76" x="81" y="759.3848">300€ - 500€</text><rect fill="#F8F8F8" height="33.9688" rx="12.5" ry="12.5" style="stroke: #333333; stroke-width: 1.5;" width="178" x="88" y="792.2148"/><text fill="#111111" font-family="DejaVu Sans" font-size="12" lengthAdjust="spacingAndGlyphs" textLength="158" x="98" y="813.3535">Ανάλυση 13 παραγόντων</text><rect fill="#F8F8F8" height="33.9688" rx="12.5" ry="12.5" style="stroke: #333333; stroke-width: 1.5;" width="244" x="55" y="846.1836"/><text fill="#111111" font-family="DejaVu Sans" font-size="12" lengthAdjust="spacingAndGlyphs" textLength="224" x="65" y="867.3223">Πλήρης τεχνική / οικονομική μελέτη</text><rect fill="#F8F8F8" height="33.9688" rx="12.5" ry="12.5" style="stroke: #333333; stroke-width: 1.5;" width="185" x="84.5" y="900.1523"/><text fill="#111111" font-family="DejaVu Sans" font-size="12" lengthAdjust="spacingAndGlyphs" textLength="165" x="94.5" y="921.291">Παράρτημα αποδεικτικών</text><rect fill="#F8F8F8" height="33.9688" rx="12.5" ry="12.5" style="stroke: #333333; stroke-width: 1.5;" width="175" x="89.5" y="954.1211"/><text fill="#111111" font-family="DejaVu Sans" font-size="12" lengthAdjust="spacingAndGlyphs" textLength="155" x="99.5" y="975.2598">Περίληψη προς δικηγόρο</text><rect fill="#F8F8F8" height="33.9688" rx="12.5" ry="12.5" style="stroke: #333333; stroke-width: 1.5;" width="265" x="319" y="724.2773"/><text fill="#111111" font-family="DejaVu Sans" font-size="12" lengthAdjust="spacingAndGlyphs" textLength="245" x="329" y="745.416">Παραμένει σε βασικό επίπεδο φακέλου</text><polygon fill="#FEFECE" points="314.25,994.0898,326.25,1006.0898,314.25,1018.0898,302.25,1006.0898,314.25,994.0898" style="stroke: #A80036; stroke-width: 1.5;"/><polygon fill="#FEFECE" points="201.25,1038.0898,427.25,1038.0898,439.25,1050.0898,427.25,1062.0898,201.25,1062.0898,189.25,1050.0898,201.25,1038.0898" style="stroke: #A80036; stroke-width: 1.5;"/><text fill="#000000" font-family="DejaVu Sans" font-size="11" lengthAdjust="spacingAndGlyphs" textLength="226" x="201.25" y="1053.8979">Υπάρχει σοβαρό οικονομικό αντικείμενο;</text><text fill="#000000" font-family="DejaVu Sans" font-size="11" lengthAdjust="spacingAndGlyphs" textLength="19" x="170.25" y="1047.4956">Ναι</text><text fill="#000000" font-family="DejaVu Sans" font-size="11" lengthAdjust="spacingAndGlyphs" textLength="18" x="439.25" y="1047.4956">Όχι</text><path d="M228,1072.0898 L228,1126.0547 L208,1130.0547 L228,1134.0547 L228,1188.0195 A0,0 0 0 0 228,1188.0195 L396,1188.0195 A0,0 0 0 0 396,1188.0195 L396,1082.0898 L386,1072.0898 L228,1072.0898 A0,0 0 0 0 228,1072.0898 " fill="#FFF8DC" style="stroke: #999999; stroke-width: 1.0;"/><path d="M386,1072.0898 L386,1082.0898 L396,1082.0898 L386,1072.0898 " fill="#FFF8DC" style="stroke: #999999; stroke-width: 1.0;"/><text fill="#000000" font-family="DejaVu Sans" font-size="13" lengthAdjust="spacingAndGlyphs" textLength="92" x="234" y="1089.1567">Για υποθέσεις:</text><text fill="#000000" font-family="DejaVu Sans" font-size="13" lengthAdjust="spacingAndGlyphs" textLength="106" x="234" y="1104.2896">- πλειστηριασμοί</text><text fill="#000000" font-family="DejaVu Sans" font-size="13" lengthAdjust="spacingAndGlyphs" textLength="92" x="234" y="1119.4224">- ΑΑΔΕ / ΕΦΚΑ</text><text fill="#000000" font-family="DejaVu Sans" font-size="13" lengthAdjust="spacingAndGlyphs" textLength="113" x="234" y="1134.5552">- servicers / funds</text><text fill="#000000" font-family="DejaVu Sans" font-size="13" lengthAdjust="spacingAndGlyphs" textLength="147" x="234" y="1149.688">- αγωγές αποζημίωσης</text><text fill="#000000" font-family="DejaVu Sans" font-size="13" lengthAdjust="spacingAndGlyphs" textLength="114" x="234" y="1164.8208">- μεγάλες οφειλές</text><text fill="#000000" font-family="DejaVu Sans" font-size="13" lengthAdjust="spacingAndGlyphs" textLength="87" x="234" y="1179.9536">- επιχειρήσεις</text><rect fill="#F8F8F8" height="47.9375" rx="12.5" ry="12.5" style="stroke: #333333; stroke-width: 1.5;" width="198" x="10" y="1106.0859"/><text fill="#111111" font-family="DejaVu Sans" font-size="12" lengthAdjust="spacingAndGlyphs" textLength="178" x="20" y="1127.2246">Ειδικός Δικαστικός Φάκελος</text><text fill="#111111" font-family="DejaVu Sans" font-size="12" lengthAdjust="spacingAndGlyphs" textLength="98" x="20" y="1141.1934">700€ - 1.500€+</text><rect fill="#F8F8F8" height="33.9688" rx="12.5" ry="12.5" style="stroke: #333333; stroke-width: 1.5;" width="207" x="416" y="1072.0898"/><text fill="#111111" font-family="DejaVu Sans" font-size="12" lengthAdjust="spacingAndGlyphs" textLength="187" x="426" y="1093.2285">Προσιτή διαχείριση υπόθεσης</text><polygon fill="#FEFECE" points="314.25,1194.0195,326.25,1206.0195,314.25,1218.0195,302.25,1206.0195,314.25,1194.0195" style="stroke: #A80036; stroke-width: 1.5;"/><rect fill="#F8F8F8" height="33.9688" rx="12.5" ry="12.5" style="stroke: #333333; stroke-width: 1.5;" width="329" x="149.75" y="1238.0195"/><text fill="#111111" font-family="DejaVu Sans" font-size="12" lengthAdjust="spacingAndGlyphs" textLength="309" x="159.75" y="1259.1582">Παράδοση φακέλου σε συνεργαζόμενο δικηγόρο</text><rect fill="#FFFFFF" height="244.1719" rx="10" ry="10" style="stroke: #000000; stroke-width: 2.0;" width="366" x="131.25" y="1282.79"/><path d="M214.25,1283.79 L214.25,1292.0869 L204.25,1302.0869 L131.25,1302.0869 " fill="none" style="stroke: #000000; stroke-width: 2.0;"/><text fill="#000000" font-family="DejaVu Sans" font-size="14" lengthAdjust="spacingAndGlyphs" textLength="73" x="134.25" y="1296.7852">Δικηγόρος</text><rect fill="#F8F8F8" height="33.9688" rx="12.5" ry="12.5" style="stroke: #333333; stroke-width: 1.5;" width="141" x="243.75" y="1319.0869"/><text fill="#111111" font-family="DejaVu Sans" font-size="12" lengthAdjust="spacingAndGlyphs" textLength="121" x="253.75" y="1340.2256">Νομική αξιολόγηση</text><rect fill="#F8F8F8" height="33.9688" rx="12.5" ry="12.5" style="stroke: #333333; stroke-width: 1.5;" width="346" x="141.25" y="1373.0557"/><text fill="#111111" font-family="DejaVu Sans" font-size="12" lengthAdjust="spacingAndGlyphs" textLength="326" x="151.25" y="1394.1943">Επιλογή ένδικου βοηθήματος ή εξώδικης ενέργειας</text><rect fill="#F8F8F8" height="33.9688" rx="12.5" ry="12.5" style="stroke: #333333; stroke-width: 1.5;" width="230" x="199.25" y="1427.0244"/><text fill="#111111" font-family="DejaVu Sans" font-size="12" lengthAdjust="spacingAndGlyphs" textLength="210" x="209.25" y="1448.1631">Σύνταξη / υπογραφή δικογράφου</text><rect fill="#F8F8F8" height="33.9688" rx="12.5" ry="12.5" style="stroke: #333333; stroke-width: 1.5;" width="199" x="214.75" y="1480.9932"/><text fill="#111111" font-family="DejaVu Sans" font-size="12" lengthAdjust="spacingAndGlyphs" textLength="179" x="224.75" y="1502.1318">Νομική εκπροσώπηση πολίτη</text><rect fill="#FFFFFF" height="244.1719" rx="10" ry="10" style="stroke: #000000; stroke-width: 2.0;" width="249" x="189.75" y="1537.7637"/><path d="M399.75,1538.7637 L399.75,1547.0605 L389.75,1557.0605 L189.75,1557.0605 " fill="none" style="stroke: #000000; stroke-width: 2.0;"/><text fill="#000000" font-family="DejaVu Sans" font-size="14" lengthAdjust="spacingAndGlyphs" textLength="200" x="192.75" y="1551.7588">Τεχνική / Οικονομική Ομάδα</text><rect fill="#F8F8F8" height="33.9688" rx="12.5" ry="12.5" style="stroke: #333333; stroke-width: 1.5;" width="155" x="236.75" y="1574.0605"/><text fill="#111111" font-family="DejaVu Sans" font-size="12" lengthAdjust="spacingAndGlyphs" textLength="135" x="246.75" y="1595.1992">Παροχή τεκμηρίωσης</text><rect fill="#F8F8F8" height="33.9688" rx="12.5" ry="12.5" style="stroke: #333333; stroke-width: 1.5;" width="177" x="225.75" y="1628.0293"/><text fill="#111111" font-family="DejaVu Sans" font-size="12" lengthAdjust="spacingAndGlyphs" textLength="157" x="235.75" y="1649.168">Οργάνωση αποδεικτικών</text><rect fill="#F8F8F8" height="33.9688" rx="12.5" ry="12.5" style="stroke: #333333; stroke-width: 1.5;" width="229" x="199.75" y="1681.998"/><text fill="#111111" font-family="DejaVu Sans" font-size="12" lengthAdjust="spacingAndGlyphs" textLength="209" x="209.75" y="1703.1367">Υποστήριξη πινάκων και μελετών</text><rect fill="#F8F8F8" height="33.9688" rx="12.5" ry="12.5" style="stroke: #333333; stroke-width: 1.5;" width="151" x="238.75" y="1735.9668"/><text fill="#111111" font-family="DejaVu Sans" font-size="12" lengthAdjust="spacingAndGlyphs" textLength="131" x="248.75" y="1757.1055">Ενημέρωση φακέλου</text><path d="M401.25,1791.9355 L401.25,1861.0332 L381.25,1865.0332 L401.25,1869.0332 L401.25,1938.1309 A0,0 0 0 0 401.25,1938.1309 L596.25,1938.1309 A0,0 0 0 0 596.25,1938.1309 L596.25,1801.9355 L586.25,1791.9355 L401.25,1791.9355 A0,0 0 0 0 401.25,1791.9355 " fill="#FFF8DC" style="stroke: #999999; stroke-width: 1.0;"/><path d="M586.25,1791.9355 L586.25,1801.9355 L596.25,1801.9355 L586.25,1791.9355 " fill="#FFF8DC" style="stroke: #999999; stroke-width: 1.0;"/><text fill="#000000" font-family="DejaVu Sans" font-size="13" lengthAdjust="spacingAndGlyphs" textLength="146" x="407.25" y="1809.0024">Ο δικηγόρος αμείβεται</text><text fill="#000000" font-family="DejaVu Sans" font-size="13" lengthAdjust="spacingAndGlyphs" textLength="145" x="407.25" y="1824.1353">για τη νομική εργασία.</text><text fill="#000000" font-family="DejaVu Sans" font-size="13" lengthAdjust="spacingAndGlyphs" textLength="0" x="411.25" y="1839.2681"/><text fill="#000000" font-family="DejaVu Sans" font-size="13" lengthAdjust="spacingAndGlyphs" textLength="174" x="407.25" y="1854.4009">Η τεχνική ομάδα αμείβεται</text><text fill="#000000" font-family="DejaVu Sans" font-size="13" lengthAdjust="spacingAndGlyphs" textLength="143" x="407.25" y="1869.5337">για την οικονομική και</text><text fill="#000000" font-family="DejaVu Sans" font-size="13" lengthAdjust="spacingAndGlyphs" textLength="160" x="407.25" y="1884.6665">αποδεικτική τεκμηρίωση.</text><text fill="#000000" font-family="DejaVu Sans" font-size="13" lengthAdjust="spacingAndGlyphs" textLength="0" x="411.25" y="1899.7993"/><text fill="#000000" font-family="DejaVu Sans" font-size="13" lengthAdjust="spacingAndGlyphs" textLength="134" x="407.25" y="1914.9321">Δεν γίνεται μοιρασιά</text><text fill="#000000" font-family="DejaVu Sans" font-size="13" lengthAdjust="spacingAndGlyphs" textLength="136" x="407.25" y="1930.0649">δικηγορικής αμοιβής.</text><rect fill="#F8F8F8" height="33.9688" rx="12.5" ry="12.5" style="stroke: #333333; stroke-width: 1.5;" width="134" x="247.25" y="1848.0488"/><text fill="#111111" font-family="DejaVu Sans" font-size="12" lengthAdjust="spacingAndGlyphs" textLength="114" x="257.25" y="1869.1875">Χωριστές αμοιβές</text><rect fill="#F8F8F8" height="33.9688" rx="12.5" ry="12.5" style="stroke: #333333; stroke-width: 1.5;" width="333" x="653" y="392.4961"/><text fill="#111111" font-family="DejaVu Sans" font-size="12" lengthAdjust="spacingAndGlyphs" textLength="313" x="663" y="413.6348">Αρχειοθέτηση ή απλή συμβουλευτική κατεύθυνση</text><rect fill="#F8F8F8" height="33.9688" rx="12.5" ry="12.5" style="stroke: #333333; stroke-width: 1.5;" width="263" x="688" y="460.4336"/><text fill="#111111" font-family="DejaVu Sans" font-size="12" lengthAdjust="spacingAndGlyphs" textLength="243" x="698" y="481.5723">Πρόταση ένταξης σε συλλογική δράση</text><polygon fill="#FEFECE" points="566.875,1944.1309,578.875,1956.1309,566.875,1968.1309,554.875,1956.1309,566.875,1944.1309" style="stroke: #A80036; stroke-width: 1.5;"/><polygon fill="#FEFECE" points="467.875,1988.1309,665.875,1988.1309,677.875,2000.1309,665.875,2012.1309,467.875,2012.1309,455.875,2000.1309,467.875,1988.1309" style="stroke: #A80036; stroke-width: 1.5;"/><text fill="#000000" font-family="DejaVu Sans" font-size="11" lengthAdjust="spacingAndGlyphs" textLength="198" x="467.875" y="2003.939">Υπάρχουν πολλές όμοιες υποθέσεις;</text><text fill="#000000" font-family="DejaVu Sans" font-size="11" lengthAdjust="spacingAndGlyphs" textLength="19" x="436.875" y="1997.5366">Ναι</text><text fill="#000000" font-family="DejaVu Sans" font-size="11" lengthAdjust="spacingAndGlyphs" textLength="18" x="677.875" y="1997.5366">Όχι</text><path d="M442.125,2022.1309 L442.125,2055.7246 L422.125,2059.7246 L442.125,2063.7246 L442.125,2097.3184 A0,0 0 0 0 442.125,2097.3184 L695.125,2097.3184 A0,0 0 0 0 695.125,2097.3184 L695.125,2032.1309 L685.125,2022.1309 L442.125,2022.1309 A0,0 0 0 0 442.125,2022.1309 " fill="#FFF8DC" style="stroke: #999999; stroke-width: 1.0;"/><path d="M685.125,2022.1309 L685.125,2032.1309 L695.125,2032.1309 L685.125,2022.1309 " fill="#FFF8DC" style="stroke: #999999; stroke-width: 1.0;"/><text fill="#000000" font-family="DejaVu Sans" font-size="13" lengthAdjust="spacingAndGlyphs" textLength="82" x="448.125" y="2039.1978">Παράδειγμα:</text><text fill="#000000" font-family="DejaVu Sans" font-size="13" lengthAdjust="spacingAndGlyphs" textLength="114" x="448.125" y="2054.3306">100 πολίτες x 50€</text><text fill="#000000" font-family="DejaVu Sans" font-size="17" font-weight="bold" lengthAdjust="spacingAndGlyphs" textLength="222" x="448.125" y="2073.1763">5.000€ κοινός φάκελος</text><text fill="#000000" font-family="DejaVu Sans" font-size="13" lengthAdjust="spacingAndGlyphs" textLength="232" x="448.125" y="2089.2524">με κοινωνική και θεσμική βαρύτητα.</text><rect fill="#F8F8F8" height="33.9688" rx="12.5" ry="12.5" style="stroke: #333333; stroke-width: 1.5;" width="189" x="233.125" y="2042.7402"/><text fill="#111111" font-family="DejaVu Sans" font-size="12" lengthAdjust="spacingAndGlyphs" textLength="169" x="243.125" y="2063.8789">Συλλογική θεματική δράση</text><rect fill="#F8F8F8" height="33.9688" rx="12.5" ry="12.5" style="stroke: #333333; stroke-width: 1.5;" width="101" x="277.125" y="2117.3184"/><text fill="#111111" font-family="DejaVu Sans" font-size="12" lengthAdjust="spacingAndGlyphs" textLength="81" x="287.125" y="2138.457">Κοινή μελέτη</text><rect fill="#F8F8F8" height="33.9688" rx="12.5" ry="12.5" style="stroke: #333333; stroke-width: 1.5;" width="143" x="256.125" y="2171.2871"/><text fill="#111111" font-family="DejaVu Sans" font-size="12" lengthAdjust="spacingAndGlyphs" textLength="123" x="266.125" y="2192.4258">Κοινά επιχειρήματα</text><rect fill="#F8F8F8" height="33.9688" rx="12.5" ry="12.5" style="stroke: #333333; stroke-width: 1.5;" width="124" x="265.625" y="2225.2559"/><text fill="#111111" font-family="DejaVu Sans" font-size="12" lengthAdjust="spacingAndGlyphs" textLength="104" x="275.625" y="2246.3945">Κοινό υπόδειγμα</text><rect fill="#F8F8F8" height="33.9688" rx="12.5" ry="12.5" style="stroke: #333333; stroke-width: 1.5;" width="254" x="200.625" y="2279.2246"/><text fill="#111111" font-family="DejaVu Sans" font-size="12" lengthAdjust="spacingAndGlyphs" textLength="234" x="210.625" y="2300.3633">Δημόσια παρουσίαση / θεσμική πίεση</text><rect fill="#F8F8F8" height="33.9688" rx="12.5" ry="12.5" style="stroke: #333333; stroke-width: 1.5;" width="182" x="715.125" y="2022.1309"/><text fill="#111111" font-family="DejaVu Sans" font-size="12" lengthAdjust="spacingAndGlyphs" textLength="162" x="725.125" y="2043.2695">Ατομική πορεία υπόθεσης</text><polygon fill="#FEFECE" points="566.875,2319.1934,578.875,2331.1934,566.875,2343.1934,554.875,2331.1934,566.875,2319.1934" style="stroke: #A80036; stroke-width: 1.5;"/><polygon fill="#FEFECE" points="467.875,2363.1934,665.875,2363.1934,677.875,2375.1934,665.875,2387.1934,467.875,2387.1934,455.875,2375.1934,467.875,2363.1934" style="stroke: #A80036; stroke-width: 1.5;"/><text fill="#000000" font-family="DejaVu Sans" font-size="11" lengthAdjust="spacingAndGlyphs" textLength="198" x="467.875" y="2379.0015">Ο πολίτης θέλει συνεχή προστασία;</text><text fill="#000000" font-family="DejaVu Sans" font-size="11" lengthAdjust="spacingAndGlyphs" textLength="19" x="436.875" y="2372.5991">Ναι</text><text fill="#000000" font-family="DejaVu Sans" font-size="11" lengthAdjust="spacingAndGlyphs" textLength="18" x="677.875" y="2372.5991">Όχι</text><rect fill="#F8F8F8" height="47.9375" rx="12.5" ry="12.5" style="stroke: #333333; stroke-width: 1.5;" width="141" x="352.625" y="2397.1934"/><text fill="#111111" font-family="DejaVu Sans" font-size="12" lengthAdjust="spacingAndGlyphs" textLength="121" x="362.625" y="2418.332">Συνδρομή φακέλου</text><text fill="#111111" font-family="DejaVu Sans" font-size="12" lengthAdjust="spacingAndGlyphs" textLength="104" x="362.625" y="2432.3008">10€ - 20€ / μήνα</text><rect fill="#F8F8F8" height="33.9688" rx="12.5" ry="12.5" style="stroke: #333333; stroke-width: 1.5;" width="206" x="320.125" y="2465.1309"/><text fill="#111111" font-family="DejaVu Sans" font-size="12" lengthAdjust="spacingAndGlyphs" textLength="186" x="330.125" y="2486.2695">Ετήσια ενημέρωση στοιχείων</text><rect fill="#F8F8F8" height="33.9688" rx="12.5" ry="12.5" style="stroke: #333333; stroke-width: 1.5;" width="232" x="307.125" y="2519.0996"/><text fill="#111111" font-family="DejaVu Sans" font-size="12" lengthAdjust="spacingAndGlyphs" textLength="212" x="317.125" y="2540.2383">Πρόσβαση σε συλλογικές δράσεις</text><rect fill="#F8F8F8" height="33.9688" rx="12.5" ry="12.5" style="stroke: #333333; stroke-width: 1.5;" width="213" x="316.625" y="2573.0684"/><text fill="#111111" font-family="DejaVu Sans" font-size="12" lengthAdjust="spacingAndGlyphs" textLength="193" x="326.625" y="2594.207">Ενημερώσεις και υποδείγματα</text><rect fill="#F8F8F8" height="33.9688" rx="12.5" ry="12.5" style="stroke: #333333; stroke-width: 1.5;" width="238" x="304.125" y="2627.0371"/><text fill="#111111" font-family="DejaVu Sans" font-size="12" lengthAdjust="spacingAndGlyphs" textLength="218" x="314.125" y="2648.1758">Διατήρηση οργανωμένου φακέλου</text><rect fill="#F8F8F8" height="33.9688" rx="12.5" ry="12.5" style="stroke: #333333; stroke-width: 1.5;" width="297" x="562.125" y="2397.1934"/><text fill="#111111" font-family="DejaVu Sans" font-size="12" lengthAdjust="spacingAndGlyphs" textLength="277" x="572.125" y="2418.332">Ο φάκελος παραμένει διαθέσιμος για χρήση</text><polygon fill="#FEFECE" points="566.875,2667.0059,578.875,2679.0059,566.875,2691.0059,554.875,2679.0059,566.875,2667.0059" style="stroke: #A80036; stroke-width: 1.5;"/><rect fill="#F8F8F8" height="47.9375" rx="12.5" ry="12.5" style="stroke: #333333; stroke-width: 1.5;" width="320" x="406.875" y="2711.0059"/><text fill="#111111" font-family="DejaVu Sans" font-size="12" lengthAdjust="spacingAndGlyphs" textLength="226" x="416.875" y="2732.1445">Βιώσιμο σύστημα χαμηλής εισόδου,</text><text fill="#111111" font-family="DejaVu Sans" font-size="12" lengthAdjust="spacingAndGlyphs" textLength="300" x="416.875" y="2746.1133">μαζικής συμμετοχής και σοβαρής τεκμηρίωσης</text><ellipse cx="566.875" cy="2789.9434" fill="#FFFFFF" rx="11" ry="11" style="stroke: #000000; stroke-width: 1.0;"/><ellipse cx="566.875" cy="2789.9434" fill="#000000" rx="6" ry="6" style="stroke: #7F7F7F; stroke-width: 1.0;"/><line style="stroke: #A80036; stroke-width: 1.5;" x1="566.875" x2="566.875" y1="50.9531" y2="70.9531"/><polygon fill="#A80036" points="562.875,60.9531,566.875,70.9531,570.875,60.9531,566.875,64.9531" style="stroke: #A80036; stroke-width: 1.0;"/><line style="stroke: #A80036; stroke-width: 1.5;" x1="566.875" x2="566.875" y1="104.9219" y2="124.9219"/><polygon fill="#A80036" points="562.875,114.9219,566.875,124.9219,570.875,114.9219,566.875,118.9219" style="stroke: #A80036; stroke-width: 1.0;"/><line style="stroke: #A80036; stroke-width: 1.5;" x1="566.875" x2="566.875" y1="172.8594" y2="196.5898"/><polygon fill="#A80036" points="562.875,186.5898,566.875,196.5898,570.875,186.5898,566.875,190.5898" style="stroke: #A80036; stroke-width: 1.0;"/><line style="stroke: #A80036; stroke-width: 1.5;" x1="566.875" x2="566.875" y1="230.5586" y2="250.5586"/><polygon fill="#A80036" points="562.875,240.5586,566.875,250.5586,570.875,240.5586,566.875,244.5586" style="stroke: #A80036; stroke-width: 1.0;"/><line style="stroke: #A80036; stroke-width: 1.5;" x1="566.875" x2="566.875" y1="284.5273" y2="304.5273"/><polygon fill="#A80036" points="562.875,294.5273,566.875,304.5273,570.875,294.5273,566.875,298.5273" style="stroke: #A80036; stroke-width: 1.0;"/><line style="stroke: #A80036; stroke-width: 1.5;" x1="314.25" x2="314.25" y1="440.4336" y2="474.4023"/><polygon fill="#A80036" points="310.25,464.4023,314.25,474.4023,318.25,464.4023,314.25,468.4023" style="stroke: #A80036; stroke-width: 1.0;"/><line style="stroke: #A80036; stroke-width: 1.5;" x1="314.25" x2="314.25" y1="508.3711" y2="528.3711"/><polygon fill="#A80036" points="310.25,518.3711,314.25,528.3711,318.25,518.3711,314.25,522.3711" style="stroke: #A80036; stroke-width: 1.0;"/><line style="stroke: #A80036; stroke-width: 1.5;" x1="314.25" x2="314.25" y1="562.3398" y2="582.3398"/><polygon fill="#A80036" points="310.25,572.3398,314.25,582.3398,318.25,572.3398,314.25,576.3398" style="stroke: #A80036; stroke-width: 1.0;"/><line style="stroke: #A80036; stroke-width: 1.5;" x1="314.25" x2="314.25" y1="616.3086" y2="636.3086"/><polygon fill="#A80036" points="310.25,626.3086,314.25,636.3086,318.25,626.3086,314.25,630.3086" style="stroke: #A80036; stroke-width: 1.0;"/><line style="stroke: #A80036; stroke-width: 1.5;" x1="177" x2="177" y1="772.2148" y2="792.2148"/><polygon fill="#A80036" points="173,782.2148,177,792.2148,181,782.2148,177,786.2148" style="stroke: #A80036; stroke-width: 1.0;"/><line style="stroke: #A80036; stroke-width: 1.5;" x1="177" x2="177" y1="826.1836" y2="846.1836"/><polygon fill="#A80036" points="173,836.1836,177,846.1836,181,836.1836,177,840.1836" style="stroke: #A80036; stroke-width: 1.0;"/><line style="stroke: #A80036; stroke-width: 1.5;" x1="177" x2="177" y1="880.1523" y2="900.1523"/><polygon fill="#A80036" points="173,890.1523,177,900.1523,181,890.1523,177,894.1523" style="stroke: #A80036; stroke-width: 1.0;"/><line style="stroke: #A80036; stroke-width: 1.5;" x1="177" x2="177" y1="934.1211" y2="954.1211"/><polygon fill="#A80036" points="173,944.1211,177,954.1211,181,944.1211,177,948.1211" style="stroke: #A80036; stroke-width: 1.0;"/><line style="stroke: #A80036; stroke-width: 1.5;" x1="214.75" x2="177" y1="702.2773" y2="702.2773"/><line style="stroke: #A80036; stroke-width: 1.5;" x1="177" x2="177" y1="702.2773" y2="724.2773"/><polygon fill="#A80036" points="173,714.2773,177,724.2773,181,714.2773,177,718.2773" style="stroke: #A80036; stroke-width: 1.0;"/><line style="stroke: #A80036; stroke-width: 1.5;" x1="413.75" x2="451.5" y1="702.2773" y2="702.2773"/><line style="stroke: #A80036; stroke-width: 1.5;" x1="451.5" x2="451.5" y1="702.2773" y2="724.2773"/><polygon fill="#A80036" points="447.5,714.2773,451.5,724.2773,455.5,714.2773,451.5,718.2773" style="stroke: #A80036; stroke-width: 1.0;"/><line style="stroke: #A80036; stroke-width: 1.5;" x1="177" x2="177" y1="988.0898" y2="1006.0898"/><line style="stroke: #A80036; stroke-width: 1.5;" x1="177" x2="302.25" y1="1006.0898" y2="1006.0898"/><polygon fill="#A80036" points="292.25,1002.0898,302.25,1006.0898,292.25,1010.0898,296.25,1006.0898" style="stroke: #A80036; stroke-width: 1.0;"/><line style="stroke: #A80036; stroke-width: 1.5;" x1="451.5" x2="451.5" y1="758.2461" y2="1006.0898"/><line style="stroke: #A80036; stroke-width: 1.5;" x1="451.5" x2="326.25" y1="1006.0898" y2="1006.0898"/><polygon fill="#A80036" points="336.25,1002.0898,326.25,1006.0898,336.25,1010.0898,332.25,1006.0898" style="stroke: #A80036; stroke-width: 1.0;"/><line style="stroke: #A80036; stroke-width: 1.5;" x1="314.25" x2="314.25" y1="670.2773" y2="690.2773"/><polygon fill="#A80036" points="310.25,680.2773,314.25,690.2773,318.25,680.2773,314.25,684.2773" style="stroke: #A80036; stroke-width: 1.0;"/><line style="stroke: #A80036; stroke-width: 1.5;" x1="189.25" x2="109" y1="1050.0898" y2="1050.0898"/><line style="stroke: #A80036; stroke-width: 1.5;" x1="109" x2="109" y1="1050.0898" y2="1106.0859"/><polygon fill="#A80036" points="105,1096.0859,109,1106.0859,113,1096.0859,109,1100.0859" style="stroke: #A80036; stroke-width: 1.0;"/><line style="stroke: #A80036; stroke-width: 1.5;" x1="439.25" x2="519.5" y1="1050.0898" y2="1050.0898"/><line style="stroke: #A80036; stroke-width: 1.5;" x1="519.5" x2="519.5" y1="1050.0898" y2="1072.0898"/><polygon fill="#A80036" points="515.5,1062.0898,519.5,1072.0898,523.5,1062.0898,519.5,1066.0898" style="stroke: #A80036; stroke-width: 1.0;"/><line style="stroke: #A80036; stroke-width: 1.5;" x1="109" x2="109" y1="1154.0234" y2="1206.0195"/><line style="stroke: #A80036; stroke-width: 1.5;" x1="109" x2="302.25" y1="1206.0195" y2="1206.0195"/><polygon fill="#A80036" points="292.25,1202.0195,302.25,1206.0195,292.25,1210.0195,296.25,1206.0195" style="stroke: #A80036; stroke-width: 1.0;"/><line style="stroke: #A80036; stroke-width: 1.5;" x1="519.5" x2="519.5" y1="1106.0586" y2="1206.0195"/><line style="stroke: #A80036; stroke-width: 1.5;" x1="519.5" x2="326.25" y1="1206.0195" y2="1206.0195"/><polygon fill="#A80036" points="336.25,1202.0195,326.25,1206.0195,336.25,1210.0195,332.25,1206.0195" style="stroke: #A80036; stroke-width: 1.0;"/><line style="stroke: #A80036; stroke-width: 1.5;" x1="314.25" x2="314.25" y1="1018.0898" y2="1038.0898"/><polygon fill="#A80036" points="310.25,1028.0898,314.25,1038.0898,318.25,1028.0898,314.25,1032.0898" style="stroke: #A80036; stroke-width: 1.0;"/><line style="stroke: #A80036; stroke-width: 1.5;" x1="314.25" x2="314.25" y1="1218.0195" y2="1238.0195"/><polygon fill="#A80036" points="310.25,1228.0195,314.25,1238.0195,318.25,1228.0195,314.25,1232.0195" style="stroke: #A80036; stroke-width: 1.0;"/><line style="stroke: #A80036; stroke-width: 1.5;" x1="314.25" x2="314.25" y1="1353.0557" y2="1373.0557"/><polygon fill="#A80036" points="310.25,1363.0557,314.25,1373.0557,318.25,1363.0557,314.25,1367.0557" style="stroke: #A80036; stroke-width: 1.0;"/><line style="stroke: #A80036; stroke-width: 1.5;" x1="314.25" x2="314.25" y1="1407.0244" y2="1427.0244"/><polygon fill="#A80036" points="310.25,1417.0244,314.25,1427.0244,318.25,1417.0244,314.25,1421.0244" style="stroke: #A80036; stroke-width: 1.0;"/><line style="stroke: #A80036; stroke-width: 1.5;" x1="314.25" x2="314.25" y1="1460.9932" y2="1480.9932"/><polygon fill="#A80036" points="310.25,1470.9932,314.25,1480.9932,318.25,1470.9932,314.25,1474.9932" style="stroke: #A80036; stroke-width: 1.0;"/><line style="stroke: #A80036; stroke-width: 1.5;" x1="314.25" x2="314.25" y1="1271.9883" y2="1319.0869"/><polygon fill="#A80036" points="310.25,1309.0869,314.25,1319.0869,318.25,1309.0869,314.25,1313.0869" style="stroke: #A80036; stroke-width: 1.0;"/><line style="stroke: #A80036; stroke-width: 1.5;" x1="314.25" x2="314.25" y1="1608.0293" y2="1628.0293"/><polygon fill="#A80036" points="310.25,1618.0293,314.25,1628.0293,318.25,1618.0293,314.25,1622.0293" style="stroke: #A80036; stroke-width: 1.0;"/><line style="stroke: #A80036; stroke-width: 1.5;" x1="314.25" x2="314.25" y1="1661.998" y2="1681.998"/><polygon fill="#A80036" points="310.25,1671.998,314.25,1681.998,318.25,1671.998,314.25,1675.998" style="stroke: #A80036; stroke-width: 1.0;"/><line style="stroke: #A80036; stroke-width: 1.5;" x1="314.25" x2="314.25" y1="1715.9668" y2="1735.9668"/><polygon fill="#A80036" points="310.25,1725.9668,314.25,1735.9668,318.25,1725.9668,314.25,1729.9668" style="stroke: #A80036; stroke-width: 1.0;"/><line style="stroke: #A80036; stroke-width: 1.5;" x1="314.25" x2="314.25" y1="1514.9619" y2="1574.0605"/><polygon fill="#A80036" points="310.25,1564.0605,314.25,1574.0605,318.25,1564.0605,314.25,1568.0605" style="stroke: #A80036; stroke-width: 1.0;"/><line style="stroke: #A80036; stroke-width: 1.5;" x1="314.25" x2="314.25" y1="1769.9355" y2="1848.0488"/><polygon fill="#A80036" points="310.25,1838.0488,314.25,1848.0488,318.25,1838.0488,314.25,1842.0488" style="stroke: #A80036; stroke-width: 1.0;"/><line style="stroke: #A80036; stroke-width: 1.5;" x1="819.5" x2="819.5" y1="426.4648" y2="460.4336"/><polygon fill="#A80036" points="815.5,450.4336,819.5,460.4336,823.5,450.4336,819.5,454.4336" style="stroke: #A80036; stroke-width: 1.0;"/><line style="stroke: #A80036; stroke-width: 1.5;" x1="480.875" x2="314.25" y1="370.4961" y2="370.4961"/><line style="stroke: #A80036; stroke-width: 1.5;" x1="314.25" x2="314.25" y1="370.4961" y2="392.4961"/><polygon fill="#A80036" points="310.25,382.4961,314.25,392.4961,318.25,382.4961,314.25,386.4961" style="stroke: #A80036; stroke-width: 1.0;"/><line style="stroke: #A80036; stroke-width: 1.5;" x1="652.875" x2="819.5" y1="370.4961" y2="370.4961"/><line style="stroke: #A80036; stroke-width: 1.5;" x1="819.5" x2="819.5" y1="370.4961" y2="392.4961"/><polygon fill="#A80036" points="815.5,382.4961,819.5,392.4961,823.5,382.4961,819.5,386.4961" style="stroke: #A80036; stroke-width: 1.0;"/><line style="stroke: #A80036; stroke-width: 1.5;" x1="314.25" x2="314.25" y1="1882.0176" y2="1956.1309"/><line style="stroke: #A80036; stroke-width: 1.5;" x1="314.25" x2="554.875" y1="1956.1309" y2="1956.1309"/><polygon fill="#A80036" points="544.875,1952.1309,554.875,1956.1309,544.875,1960.1309,548.875,1956.1309" style="stroke: #A80036; stroke-width: 1.0;"/><line style="stroke: #A80036; stroke-width: 1.5;" x1="819.5" x2="819.5" y1="494.4023" y2="1956.1309"/><line style="stroke: #A80036; stroke-width: 1.5;" x1="819.5" x2="578.875" y1="1956.1309" y2="1956.1309"/><polygon fill="#A80036" points="588.875,1952.1309,578.875,1956.1309,588.875,1960.1309,584.875,1956.1309" style="stroke: #A80036; stroke-width: 1.0;"/><line style="stroke: #A80036; stroke-width: 1.5;" x1="566.875" x2="566.875" y1="338.4961" y2="358.4961"/><polygon fill="#A80036" points="562.875,348.4961,566.875,358.4961,570.875,348.4961,566.875,352.4961" style="stroke: #A80036; stroke-width: 1.0;"/><line style="stroke: #A80036; stroke-width: 1.5;" x1="327.625" x2="327.625" y1="2076.709" y2="2117.3184"/><polygon fill="#A80036" points="323.625,2107.3184,327.625,2117.3184,331.625,2107.3184,327.625,2111.3184" style="stroke: #A80036; stroke-width: 1.0;"/><line style="stroke: #A80036; stroke-width: 1.5;" x1="327.625" x2="327.625" y1="2151.2871" y2="2171.2871"/><polygon fill="#A80036" points="323.625,2161.2871,327.625,2171.2871,331.625,2161.2871,327.625,2165.2871" style="stroke: #A80036; stroke-width: 1.0;"/><line style="stroke: #A80036; stroke-width: 1.5;" x1="327.625" x2="327.625" y1="2205.2559" y2="2225.2559"/><polygon fill="#A80036" points="323.625,2215.2559,327.625,2225.2559,331.625,2215.2559,327.625,2219.2559" style="stroke: #A80036; stroke-width: 1.0;"/><line style="stroke: #A80036; stroke-width: 1.5;" x1="327.625" x2="327.625" y1="2259.2246" y2="2279.2246"/><polygon fill="#A80036" points="323.625,2269.2246,327.625,2279.2246,331.625,2269.2246,327.625,2273.2246" style="stroke: #A80036; stroke-width: 1.0;"/><line style="stroke: #A80036; stroke-width: 1.5;" x1="455.875" x2="327.625" y1="2000.1309" y2="2000.1309"/><line style="stroke: #A80036; stroke-width: 1.5;" x1="327.625" x2="327.625" y1="2000.1309" y2="2042.7402"/><polygon fill="#A80036" points="323.625,2032.7402,327.625,2042.7402,331.625,2032.7402,327.625,2036.7402" style="stroke: #A80036; stroke-width: 1.0;"/><line style="stroke: #A80036; stroke-width: 1.5;" x1="677.875" x2="806.125" y1="2000.1309" y2="2000.1309"/><line style="stroke: #A80036; stroke-width: 1.5;" x1="806.125" x2="806.125" y1="2000.1309" y2="2022.1309"/><polygon fill="#A80036" points="802.125,2012.1309,806.125,2022.1309,810.125,2012.1309,806.125,2016.1309" style="stroke: #A80036; stroke-width: 1.0;"/><line style="stroke: #A80036; stroke-width: 1.5;" x1="327.625" x2="327.625" y1="2313.1934" y2="2331.1934"/><line style="stroke: #A80036; stroke-width: 1.5;" x1="327.625" x2="554.875" y1="2331.1934" y2="2331.1934"/><polygon fill="#A80036" points="544.875,2327.1934,554.875,2331.1934,544.875,2335.1934,548.875,2331.1934" style="stroke: #A80036; stroke-width: 1.0;"/><line style="stroke: #A80036; stroke-width: 1.5;" x1="806.125" x2="806.125" y1="2056.0996" y2="2331.1934"/><line style="stroke: #A80036; stroke-width: 1.5;" x1="806.125" x2="578.875" y1="2331.1934" y2="2331.1934"/><polygon fill="#A80036" points="588.875,2327.1934,578.875,2331.1934,588.875,2335.1934,584.875,2331.1934" style="stroke: #A80036; stroke-width: 1.0;"/><line style="stroke: #A80036; stroke-width: 1.5;" x1="566.875" x2="566.875" y1="1968.1309" y2="1988.1309"/><polygon fill="#A80036" points="562.875,1978.1309,566.875,1988.1309,570.875,1978.1309,566.875,1982.1309" style="stroke: #A80036; stroke-width: 1.0;"/><line style="stroke: #A80036; stroke-width: 1.5;" x1="423.125" x2="423.125" y1="2445.1309" y2="2465.1309"/><polygon fill="#A80036" points="419.125,2455.1309,423.125,2465.1309,427.125,2455.1309,423.125,2459.1309" style="stroke: #A80036; stroke-width: 1.0;"/><line style="stroke: #A80036; stroke-width: 1.5;" x1="423.125" x2="423.125" y1="2499.0996" y2="2519.0996"/><polygon fill="#A80036" points="419.125,2509.0996,423.125,2519.0996,427.125,2509.0996,423.125,2513.0996" style="stroke: #A80036; stroke-width: 1.0;"/><line style="stroke: #A80036; stroke-width: 1.5;" x1="423.125" x2="423.125" y1="2553.0684" y2="2573.0684"/><polygon fill="#A80036" points="419.125,2563.0684,423.125,2573.0684,427.125,2563.0684,423.125,2567.0684" style="stroke: #A80036; stroke-width: 1.0;"/><line style="stroke: #A80036; stroke-width: 1.5;" x1="423.125" x2="423.125" y1="2607.0371" y2="2627.0371"/><polygon fill="#A80036" points="419.125,2617.0371,423.125,2627.0371,427.125,2617.0371,423.125,2621.0371" style="stroke: #A80036; stroke-width: 1.0;"/><line style="stroke: #A80036; stroke-width: 1.5;" x1="455.875" x2="423.125" y1="2375.1934" y2="2375.1934"/><line style="stroke: #A80036; stroke-width: 1.5;" x1="423.125" x2="423.125" y1="2375.1934" y2="2397.1934"/><polygon fill="#A80036" points="419.125,2387.1934,423.125,2397.1934,427.125,2387.1934,423.125,2391.1934" style="stroke: #A80036; stroke-width: 1.0;"/><line style="stroke: #A80036; stroke-width: 1.5;" x1="677.875" x2="710.625" y1="2375.1934" y2="2375.1934"/><line style="stroke: #A80036; stroke-width: 1.5;" x1="710.625" x2="710.625" y1="2375.1934" y2="2397.1934"/><polygon fill="#A80036" points="706.625,2387.1934,710.625,2397.1934,714.625,2387.1934,710.625,2391.1934" style="stroke: #A80036; stroke-width: 1.0;"/><line style="stroke: #A80036; stroke-width: 1.5;" x1="423.125" x2="423.125" y1="2661.0059" y2="2679.0059"/><line style="stroke: #A80036; stroke-width: 1.5;" x1="423.125" x2="554.875" y1="2679.0059" y2="2679.0059"/><polygon fill="#A80036" points="544.875,2675.0059,554.875,2679.0059,544.875,2683.0059,548.875,2679.0059" style="stroke: #A80036; stroke-width: 1.0;"/><line style="stroke: #A80036; stroke-width: 1.5;" x1="710.625" x2="710.625" y1="2431.1621" y2="2679.0059"/><line style="stroke: #A80036; stroke-width: 1.5;" x1="710.625" x2="578.875" y1="2679.0059" y2="2679.0059"/><polygon fill="#A80036" points="588.875,2675.0059,578.875,2679.0059,588.875,2683.0059,584.875,2679.0059" style="stroke: #A80036; stroke-width: 1.0;"/><line style="stroke: #A80036; stroke-width: 1.5;" x1="566.875" x2="566.875" y1="2343.1934" y2="2363.1934"/><polygon fill="#A80036" points="562.875,2353.1934,566.875,2363.1934,570.875,2353.1934,566.875,2357.1934" style="stroke: #A80036; stroke-width: 1.0;"/><line style="stroke: #A80036; stroke-width: 1.5;" x1="566.875" x2="566.875" y1="2691.0059" y2="2711.0059"/><polygon fill="#A80036" points="562.875,2701.0059,566.875,2711.0059,570.875,2701.0059,566.875,2705.0059" style="stroke: #A80036; stroke-width: 1.0;"/><line style="stroke: #A80036; stroke-width: 1.5;" x1="566.875" x2="566.875" y1="2758.9434" y2="2778.9434"/><polygon fill="#A80036" points="562.875,2768.9434,566.875,2778.9434,570.875,2768.9434,566.875,2772.9434" style="stroke: #A80036; stroke-width: 1.0;"/><!--MD5=[212764c197eb0962e03ce57713a60dab]
@startuml
title Οικονομικό Μοντέλο Συνεργασίας Πολιτών - Δικηγόρων - Τεκμηρίωσης

skinparam backgroundColor #FFFFFF
skinparam shadowing false
skinparam roundcorner 20
skinparam defaultFontName DejaVu Sans
skinparam activity {
  BackgroundColor #F8F8F8
  BorderColor #333333
  FontColor #111111
}
skinparam note {
  BackgroundColor #FFF8DC
  BorderColor #999999
}

start

:Πολίτης με οικονομικό / νομικό πρόβλημα;

:Χαμηλό κόστος εισόδου\nΆνοιγμα φακέλου 30€ - 50€;

note right
Στόχος:
να μη αποκλείεται ο πολίτης
λόγω έλλειψης χρημάτων.
end note

:Βασική καταγραφή στοιχείων;
:Πρώτη εκτίμηση πραγματικής αδυναμίας πληρωμής;
:Ταξινόμηση υπόθεσης;

if (Η υπόθεση έχει προοπτική;) then (Ναι)

  :Βασικός Φάκελος Αδυναμίας Πληρωμής\n150€ - 250€;

  :Υπολογισμός ελάχιστου κόστους διαβίωσης;
  :Πίνακες εισοδήματος - δαπανών;
  :Συγκέντρωση αποδεικτικών στοιχείων;
  :Σύντομη οικονομική έκθεση;

  if (Απαιτείται πλήρης τεκμηρίωση;) then (Ναι)

    :Πλήρης Φάκελος Τεκμηρίωσης\n300€ - 500€;

    :Ανάλυση 13 παραγόντων;
    :Πλήρης τεχνική / οικονομική μελέτη;
    :Παράρτημα αποδεικτικών;
    :Περίληψη προς δικηγόρο;

  else (Όχι)
    :Παραμένει σε βασικό επίπεδο φακέλου;
  endif

  if (Υπάρχει σοβαρό οικονομικό αντικείμενο;) then (Ναι)

    :Ειδικός Δικαστικός Φάκελος\n700€ - 1.500€+;

    note right
    Για υποθέσεις:
    - πλειστηριασμοί
    - ΑΑΔΕ / ΕΦΚΑ
    - servicers / funds
    - αγωγές αποζημίωσης
    - μεγάλες οφειλές
    - επιχειρήσεις
    end note

  else (Όχι)
    :Προσιτή διαχείριση υπόθεσης;
  endif

  :Παράδοση φακέλου σε συνεργαζόμενο δικηγόρο;

  partition "Δικηγόρος" {
    :Νομική αξιολόγηση;
    :Επιλογή ένδικου βοηθήματος ή εξώδικης ενέργειας;
    :Σύνταξη / υπογραφή δικογράφου;
    :Νομική εκπροσώπηση πολίτη;
  }

  partition "Τεχνική / Οικονομική Ομάδα" {
    :Παροχή τεκμηρίωσης;
    :Οργάνωση αποδεικτικών;
    :Υποστήριξη πινάκων και μελετών;
    :Ενημέρωση φακέλου;
  }

  :Χωριστές αμοιβές;

  note right
  Ο δικηγόρος αμείβεται
  για τη νομική εργασία.

  Η τεχνική ομάδα αμείβεται
  για την οικονομική και
  αποδεικτική τεκμηρίωση.

  Δεν γίνεται μοιρασιά
  δικηγορικής αμοιβής.
  end note

else (Όχι)

  :Αρχειοθέτηση ή απλή συμβουλευτική κατεύθυνση;
  :Πρόταση ένταξης σε συλλογική δράση;

endif

if (Υπάρχουν πολλές όμοιες υποθέσεις;) then (Ναι)

  :Συλλογική θεματική δράση;

  note right
  Παράδειγμα:
  100 πολίτες x 50€
  = 5.000€ κοινός φάκελος
  με κοινωνική και θεσμική βαρύτητα.
  end note

  :Κοινή μελέτη;
  :Κοινά επιχειρήματα;
  :Κοινό υπόδειγμα;
  :Δημόσια παρουσίαση / θεσμική πίεση;

else (Όχι)
  :Ατομική πορεία υπόθεσης;
endif

if (Ο πολίτης θέλει συνεχή προστασία;) then (Ναι)

  :Συνδρομή φακέλου\n10€ - 20€ / μήνα;

  :Ετήσια ενημέρωση στοιχείων;
  :Πρόσβαση σε συλλογικές δράσεις;
  :Ενημερώσεις και υποδείγματα;
  :Διατήρηση οργανωμένου φακέλου;

else (Όχι)
  :Ο φάκελος παραμένει διαθέσιμος για χρήση;
endif

:Βιώσιμο σύστημα χαμηλής εισόδου,\nμαζικής συμμετοχής και σοβαρής τεκμηρίωσης;

stop

@enduml

PlantUML version 1.2020.02(Sun Mar 01 12:22:07 EET 2020)
(GPL source distribution)
Java Runtime: OpenJDK Runtime Environment
JVM: OpenJDK 64-Bit Server VM
Java Version: 17.0.18+8-Ubuntu-122.04.1
Operating System: Linux
Default Encoding: UTF-8
Language: en
Country: GB
--></g></svg>